<svg id="expertise_" data-name="expertise " xmlns="http://www.w3.org/2000/svg" width="305" height="100" viewBox="0 0 305 100">
  <rect id="Rectangle_3_Copy" data-name="Rectangle 3 Copy" width="305" height="100" fill="#098446"/>
  <text id="_5_of_expertise" data-name="5% of expertise" transform="translate(24 56.482)" fill="#fff" font-size="18" font-family="SegoeUI, Segoe UI"><tspan x="0" y="0">5% of expertise </tspan></text>
  <text id="you_have" data-name="you have" transform="translate(24 34.482)" fill="#fff" font-size="12" font-family="SegoeUI, Segoe UI" opacity="0.5"><tspan x="0" y="0">you have </tspan></text>
  <rect id="Rectangle_6" data-name="Rectangle 6" width="260" height="8" rx="4" transform="translate(24 74)" fill="#104c2d"/>
  <rect id="Rectangle_6_Copy" data-name="Rectangle 6 Copy" width="13" height="8" rx="4" transform="translate(24 74)" fill="#1fca74"/>
  <path id="Combined_Shape" data-name="Combined Shape" d="M-1.25,10A1.25,1.25,0,0,0,0,8.75V1.25A1.25,1.25,0,0,0-1.25,0,1.25,1.25,0,0,0-2.5,1.25V7.5H-8.75A1.25,1.25,0,0,0-10,8.75,1.25,1.25,0,0,0-8.75,10Z" transform="translate(276.071 41.858) rotate(-45)" fill="#104c2d"/>
</svg>
