<svg xmlns="http://www.w3.org/2000/svg" width="33.802" height="32.81" viewBox="0 0 33.802 32.81">
  <path id="Combined_Shape" data-name="Combined Shape" d="M16.9,32.81h-.007a17.051,17.051,0,0,1-11.947-4.8,16.079,16.079,0,0,1,0-23.2A17.052,17.052,0,0,1,16.888,0,17.088,17.088,0,0,1,28.823,4.77a16.082,16.082,0,0,1,.238,23.036,16.841,16.841,0,0,1-5.443,3.66A17.261,17.261,0,0,1,16.9,32.81Zm0-11.145H16.88A1.349,1.349,0,0,0,15.514,23a1.365,1.365,0,0,0,1.361,1.347h.016a1.383,1.383,0,0,0,1.382-1.342,1.316,1.316,0,0,0-.392-.935,1.382,1.382,0,0,0-.984-.408Zm.044-10.558a3.272,3.272,0,0,1,1.51.38,2.27,2.27,0,0,1,1.154,1.8,1.875,1.875,0,0,1-.75,1.7c-.275.209-.549.428-.814.64s-.559.447-.844.663a3.9,3.9,0,0,0-1.659,3.338,1.362,1.362,0,0,0,1.4,1.3h.037a1.4,1.4,0,0,0,.982-.443,1.239,1.239,0,0,0,.349-.9,1.373,1.373,0,0,1,.583-1.218c.287-.225.574-.459.852-.686s.578-.471.871-.7a4.51,4.51,0,0,0,.858-6.271,5.441,5.441,0,0,0-4.549-2.246l-.229.011a5.526,5.526,0,0,0-.846.081,5.327,5.327,0,0,0-4.4,5.15,1.354,1.354,0,0,0,.384.981,1.333,1.333,0,0,0,.955.4h.007a1.359,1.359,0,0,0,1.374-1.35,2.487,2.487,0,0,1,.077-.581A2.724,2.724,0,0,1,16.941,11.108Z" transform="translate(0 0)" fill="rgba(16,27,79,0.51)" opacity="0.7"/>
</svg>
