<svg xmlns="http://www.w3.org/2000/svg" width="33.906" height="29.71" viewBox="0 0 33.906 29.71">
  <path id="Combined_Shape" data-name="Combined Shape" d="M2.378,29.709c-.518,0-.63-.112-.63-.628V17.408c0-.331,0-.33.3-.224a37.522,37.522,0,0,0,7.464,1.8c1.17.162,2.342.289,3.52.344.25.012.36.081.329.351a6.5,6.5,0,0,0-.005.725,1.45,1.45,0,0,0,1.453,1.521q2.148.032,4.3,0a1.449,1.449,0,0,0,1.45-1.523c0-.281.012-.562,0-.842-.01-.18.054-.227.227-.236a40.059,40.059,0,0,0,5.487-.693,35.073,35.073,0,0,0,5.611-1.583.607.607,0,0,1,.284-.077V29.076c0,.517-.114.633-.626.633H2.378Zm16.345-9.388c-.59-.013-1.18,0-1.769,0s-1.181-.008-1.77,0c-.184,0-.225-.05-.222-.226q.015-1.1,0-2.206c0-.161.04-.212.206-.212q1.786.011,3.57,0c.167,0,.208.05.206.212q-.012,1.1,0,2.2c0,.171-.036.227-.206.227Zm-5.55-2.644A37.358,37.358,0,0,1,.328,14.718.471.471,0,0,1,0,14.206c.022-2.8.027-5.594.037-8.392,0-.507.08-.586.595-.586H10.905c0-.021,0-.043,0-.068-.015-.793-.01-1.587-.005-2.38A2.683,2.683,0,0,1,13.586.018q3.542-.039,7.086.005a2.673,2.673,0,0,1,2.56,2.584c.022.851.015,1.7,0,2.555a.509.509,0,0,0,0,.066h9.92c.077,0,.155,0,.232,0,.365.011.482.126.483.492q.013,2.788.022,5.576c0,.929,0,1.858.015,2.787a.349.349,0,0,1-.236.37,30.977,30.977,0,0,1-7.438,2.472,41.334,41.334,0,0,1-5.483.725c-.151.011-.194-.005-.2-.167A1.456,1.456,0,0,0,19.03,16q-2.076-.013-4.153,0a1.459,1.459,0,0,0-1.521,1.482c0,.126-.011.2-.149.2Z" transform="translate(0 0)" fill="rgba(16,27,79,0.51)" opacity="0.7"/>
</svg>
