<svg xmlns="http://www.w3.org/2000/svg" width="32.99" height="31.148" viewBox="0 0 32.99 31.148">
  <path id="Fill_1" data-name="Fill 1" d="M23.724,31.148H2.2A2.2,2.2,0,0,1,0,28.95V2.2A2.2,2.2,0,0,1,2.2,0H23.724a2.2,2.2,0,0,1,2.2,2.2V8.445a7.323,7.323,0,0,1,0,14.637V28.95A2.2,2.2,0,0,1,23.724,31.148ZM4.979,24.257a.725.725,0,0,0,0,1.45H20.943a.725.725,0,1,0,0-1.45Zm0-4.679a.725.725,0,0,0,0,1.45h15.6a7.332,7.332,0,0,1-1.164-1.45ZM23.31,14.984a.789.789,0,1,0,0,1.578h1.717v1.717a.789.789,0,1,0,1.578,0V16.562h1.718a.789.789,0,0,0,0-1.578H26.6V13.267a.789.789,0,1,0-1.578,0v1.717ZM4.979,14.9a.725.725,0,0,0,0,1.451H18.365c-.017-.219-.025-.411-.025-.585a7.281,7.281,0,0,1,.053-.866Zm0-4.679a.725.725,0,0,0,0,1.45H19.589a7.366,7.366,0,0,1,1.292-1.45Zm0-4.679a.725.725,0,0,0,0,1.45H20.943a.725.725,0,1,0,0-1.45Z" fill="rgba(16,27,79,0.51)" opacity="0.7"/>
</svg>
