<svg xmlns="http://www.w3.org/2000/svg" width="34.925" height="30.646" viewBox="0 0 34.925 30.646">
  <g id="Page_1" data-name="Page 1" transform="matrix(0.999, -0.035, 0.035, 0.999, -0.004, 1.075)">
    <path id="Fill_1" data-name="Fill 1" d="M23.374,0H10.543A10.574,10.574,0,0,0,0,10.543v2.068A10.574,10.574,0,0,0,10.543,23.155H19.9L19.9,29.48l9.544-8.259a10.55,10.55,0,0,0,4.476-8.609V10.543A10.574,10.574,0,0,0,23.374,0" transform="translate(0 0.109)" fill="#fff"/>
    <path id="Fill_4" data-name="Fill 4" d="M3.729,1.864A1.864,1.864,0,1,1,1.865,0,1.864,1.864,0,0,1,3.729,1.864" transform="translate(7.25 9.954)" fill="#4d68c1"/>
    <path id="Fill_6" data-name="Fill 6" d="M3.729,1.864A1.864,1.864,0,1,1,1.865,0,1.864,1.864,0,0,1,3.729,1.864" transform="translate(15.094 9.954)" fill="#4d68c1"/>
    <path id="Fill_8" data-name="Fill 8" d="M3.729,1.864A1.864,1.864,0,1,1,1.864,0,1.864,1.864,0,0,1,3.729,1.864" transform="translate(22.938 9.954)" fill="#4d68c1"/>
  </g>
</svg>
