<svg xmlns="http://www.w3.org/2000/svg" width="28.516" height="34" viewBox="0 0 28.516 34">
  <path id="Combined_Shape" data-name="Combined Shape" d="M28.19,34c-1.746-.005-8.963-.008-15.19-.008-5.461,0-11.658,0-12.668.008H.325c-.142,0-.215-.018-.261-.065A.342.342,0,0,1,0,33.681c.014-2.394.014-32,0-33.35A.358.358,0,0,1,.063.068.354.354,0,0,1,.319,0c1.363,0,6.4.007,12.835.007,6.467,0,13.929,0,15.034-.01H28.2c.255,0,.317.063.317.319-.01,4.594-.014,32,0,33.356A.258.258,0,0,1,28.2,34ZM9.274,29.038c0,.7,0,.7.715.7s.716,0,.716-.706,0-.7-.727-.7C9.274,28.328,9.274,28.328,9.274,29.038Zm-2.845-.01c0,.709,0,.709.7.709s.715,0,.715-.7c0-.713,0-.713-.706-.713S6.429,28.328,6.429,29.029Zm-2.848.005c0,.7,0,.7.707.7s.707,0,.707-.7,0-.706-.707-.706S3.581,28.328,3.581,29.034ZM21.438,25.5c.874,0,2.027,0,3.2.007a.335.335,0,0,0,.257-.068.309.309,0,0,0,.048-.244,4.135,4.135,0,0,1,0-.783.322.322,0,0,0-.042-.257c-.055-.061-.157-.074-.3-.074-4.837.005-9.741.006-14.32.006H3.812a.55.55,0,0,1-.058,0,.429.429,0,0,0-.045,0,.127.127,0,0,0-.1.032.2.2,0,0,0-.036.148l0,.124a6,6,0,0,1-.007.784.33.33,0,0,0,.048.262.384.384,0,0,0,.291.075H3.92C6.051,25.5,8.142,25.5,9.907,25.5H21.438ZM3.617,19.857a.211.211,0,0,0-.04.159l0,.07a6.508,6.508,0,0,1-.005.838.336.336,0,0,0,.049.265c.048.053.131.075.289.075h.006c2.13-.006,4.222-.007,5.987-.007h14.7l.07,0a.707.707,0,0,1,.08,0,.279.279,0,0,0,.038,0,.137.137,0,0,0,.1-.034.2.2,0,0,0,.038-.148c0-.059,0-.117,0-.176a6.224,6.224,0,0,1,.009-.733.347.347,0,0,0-.05-.273.413.413,0,0,0-.309-.078c-4.829.005-9.725.006-14.3.006h-6.4l-.051,0a.361.361,0,0,1-.057,0,.376.376,0,0,0-.053,0A.137.137,0,0,0,3.617,19.857ZM6.24,5.646A3.945,3.945,0,0,0,6.4,8.715c.092.233.084.318-.15.434A4.6,4.6,0,0,0,3.6,13.179c-.043.589-.035,1.191-.027,1.772.005.344.01.7,0,1.047a.33.33,0,0,0,.059.248.324.324,0,0,0,.24.063h.009C4.91,16.3,5.92,16.3,6.686,16.3h4.757c.965,0,2.107,0,3.253,0h.011c.1,0,.172-.008.214-.051a.265.265,0,0,0,.05-.2c-.005-.356,0-.717,0-1.067.006-.555.013-1.129-.018-1.69A4.657,4.657,0,0,0,12.27,9.131c-.184-.094-.229-.156-.147-.361A4.414,4.414,0,0,0,12.5,6.3,3.34,3.34,0,0,0,9.7,3.587a3.5,3.5,0,0,0-.388-.023A3.286,3.286,0,0,0,6.24,5.646ZM24.733,16.307a.221.221,0,0,0,.164-.046.242.242,0,0,0,.041-.176c-.008-.309-.016-.627,0-.94a.281.281,0,0,0-.045-.22.285.285,0,0,0-.218-.059h-.009c-.51,0-1.054.007-1.762.007H19.179c-.738,0-1.3,0-1.83,0H17.34a.275.275,0,0,0-.205.05.238.238,0,0,0-.041.183c.019.334.011.674,0,1a.213.213,0,0,0,.039.159.206.206,0,0,0,.153.043c1.337,0,2.554,0,3.722,0C22.324,16.3,23.541,16.3,24.733,16.307ZM17.141,9.973a.3.3,0,0,0-.046.233,8.236,8.236,0,0,1,0,.909.244.244,0,0,0,.042.188.24.24,0,0,0,.179.049c1.261,0,2.556,0,3.849,0,1.169,0,2.369,0,3.563,0a.227.227,0,0,0,.167-.046.232.232,0,0,0,.04-.173c-.008-.28-.018-.6,0-.909a.32.32,0,0,0-.05-.247.307.307,0,0,0-.235-.066h-.016c-.478.006-1,.009-1.652.009l-.972,0H20.057l-.951,0c-.689,0-1.22,0-1.722-.009H17.37A.3.3,0,0,0,17.141,9.973ZM24.715,6.4a.239.239,0,0,0,.181-.05.243.243,0,0,0,.042-.185,8.759,8.759,0,0,1,0-.909c.008-.124-.005-.192-.046-.235a.3.3,0,0,0-.229-.062h-.013c-.51.006-1.054.009-1.761.009H19.2c-.739,0-1.3,0-1.83-.008h-.009a.286.286,0,0,0-.219.059.281.281,0,0,0-.045.22,8.634,8.634,0,0,1,0,.909.261.261,0,0,0,.043.2.251.251,0,0,0,.191.053c1.155,0,2.356-.005,3.571-.005S23.4,6.395,24.715,6.4ZM4.99,14.585a8.382,8.382,0,0,1,.121-1.963,3.255,3.255,0,0,1,2.033-2.3.3.3,0,0,1,.358.059,2.418,2.418,0,0,0,3.543,0,.3.3,0,0,1,.359-.057,3.366,3.366,0,0,1,2.145,3.044c.012.418-.01.836.006,1.254.008.207-.056.26-.262.259-1.345-.01-2.692-.005-4.037-.005-1.325,0-2.65-.006-3.974.006h-.01C5.042,14.878,4.978,14.816,4.99,14.585ZM8.41,9.257a3.589,3.589,0,0,1-.971-2.106A1.966,1.966,0,0,1,9.267,4.968,1.89,1.89,0,0,1,11.11,6.9a3.527,3.527,0,0,1-.988,2.366,1.2,1.2,0,0,1-.85.469A1.212,1.212,0,0,1,8.41,9.257Z" transform="translate(0)" fill="rgba(16,27,79,0.51)" opacity="0.7"/>
</svg>
